<?xml version="1.0" encoding="UTF-8"?>
<!DOCTYPE svg PUBLIC "-//W3C//DTD SVG 1.1//EN" "http://www.w3.org/Graphics/SVG/1.1/DTD/svg11.dtd">
<!-- Creator: CorelDRAW X8 -->
<svg xmlns="http://www.w3.org/2000/svg" xml:space="preserve" width="8.33333in" height="8.33333in" version="1.1" style="shape-rendering:geometricPrecision; text-rendering:geometricPrecision; image-rendering:optimizeQuality; fill-rule:evenodd; clip-rule:evenodd"
viewBox="0 0 8333 8333"
 xmlns:xlink="http://www.w3.org/1999/xlink">
 <defs>
  <style type="text/css">
   <![CDATA[
    .str1 {stroke:white;stroke-width:83.3307}
    .str2 {stroke:white;stroke-width:116.665}
    .str0 {stroke:white;stroke-width:3}
    .fil1 {fill:none}
    .fil0 {fill:white}
   ]]>
  </style>
 </defs>
 <g id="Layer_x0020_1">
  <metadata id="CorelCorpID_0Corel-Layer"/>
  <g id="_2123530028784">
   <path class="fil0 str0" d="M6270 1966l49 41c54,40 146,73 89,153 83,-8 126,-56 227,-36 130,25 268,162 408,119 66,-21 108,-82 160,-118 70,-49 148,-1 232,-4 159,-5 471,-131 582,-247 -23,5 -66,28 -125,41 -525,121 -987,-173 -1622,51z"/>
   <path class="fil0 str0" d="M5779 2257c22,36 81,105 114,133 231,194 482,250 772,145 20,-7 44,-20 63,-24 -22,-25 -122,-64 -206,-244 -22,-46 -31,-115 -82,-85 -61,36 -112,67 -200,70 -145,5 -125,-53 -314,10 -84,29 -105,7 -147,-5z"/>
   <path class="fil0 str0" d="M7330 2152c-66,0 -109,18 -148,47 -85,65 -138,130 -289,86 -78,-23 -114,-58 -138,-65 6,11 4,7 13,17 6,6 9,11 14,16 32,36 115,104 163,126 178,81 788,-209 921,-320 25,-20 71,-58 82,-85 -20,4 -46,28 -64,38 -11,6 -19,11 -32,18l-99 51c-75,34 -147,58 -231,69 -68,9 -125,2 -192,2z"/>
   <path class="fil0 str0" d="M6673 2381c-5,-27 -6,-28 -1,-55l165 150c64,51 121,88 205,115 44,13 94,20 141,14 15,-2 31,-2 45,-10 -124,-2 -176,-36 -264,-111l-115 -117c-53,-63 -230,-245 -300,-199 -57,37 14,100 51,140l73 73z"/>
   <path class="fil0 str0" d="M5788 2175c42,26 227,5 281,-4 44,-8 88,-19 132,-23 25,-2 52,-1 77,1l48 10c25,2 6,3 14,-4 2,-6 -11,-29 0,-50 8,-14 22,-18 38,-26 -26,-35 -88,-79 -128,-88 -88,-20 -286,144 -462,184z"/>
   <path class="fil0 str0" d="M7988 1946c90,2 151,85 280,29 24,-10 58,-34 69,-51 -62,26 -110,49 -190,5 -23,-13 -53,-36 -84,-37 -39,-1 -67,25 -75,54z"/>
   <path class="fil0 str0" d="M6730 2439c7,9 7,13 16,23 107,111 239,195 410,177 -154,-14 -319,-102 -426,-200z"/>
   <path class="fil0 str0" d="M7885 1863c38,-4 52,-18 101,-12 -12,-39 -118,-44 -95,-125 -44,39 -42,104 -6,137z"/>
   <path class="fil0 str0" d="M5817 2246c104,8 163,-37 261,-37 49,0 113,20 159,25 39,5 58,1 143,-42 -104,37 -130,35 -157,29 -46,-7 -99,-25 -149,-24 -89,1 -134,39 -257,49z"/>
   <path class="fil0 str0" d="M6390 2127c-12,11 -21,8 -31,-4 5,25 22,28 31,4z"/>
  </g>
  <polyline class="fil1 str1" points="1099,4187 225,4187 225,1010 537,1010 3152,1010 "/>
  <polyline class="fil1 str1" points="3542,1409 3152,1409 3152,610 5683,610 "/>
  <polyline class="fil1 str1" points="4045,1809 3572,1809 3572,1010 5683,1010 "/>
  <polyline class="fil1 str1" points="5683,2209 4056,2209 4056,1409 5683,1409 "/>
  <polyline class="fil1 str1" points="5683,3949 4051,3949 4051,3150 5683,3150 "/>
  <polyline class="fil1 str1" points="5683,5931 3367,5931 3367,5132 5683,5132 "/>
  <polyline class="fil1 str1" points="5683,7911 3912,7911 3912,7112 5683,7112 "/>
  <polyline class="fil1 str1" points="3388,6851 2799,6851 2799,5531 3388,5531 "/>
  <polyline class="fil1 str1" points="3912,7511 3388,7511 3388,6191 5683,6191 "/>
  <polyline class="fil1 str1" points="1732,4824 1099,4824 1099,3549 4051,3549 "/>
  <polyline class="fil1 str1" points="2326,5472 1732,5472 1732,4176 5683,4176 "/>
  <polyline class="fil1 str1" points="2799,6191 2326,6191 2326,4752 5683,4752 "/>
  <polyline class="fil1 str2" points="225,2598 225,1010 3152,1010 3152,1409 3572,1409 3572,1809 4056,1809 4056,2209 5683,2209 "/>
 </g>
</svg>
