<?xml version="1.0" encoding="UTF-8"?>
<!DOCTYPE svg PUBLIC "-//W3C//DTD SVG 1.1//EN" "http://www.w3.org/Graphics/SVG/1.1/DTD/svg11.dtd">
<!-- Creator: CorelDRAW X8 -->
<svg xmlns="http://www.w3.org/2000/svg" xml:space="preserve" width="6.66666in" height="6.66666in" version="1.1" style="shape-rendering:geometricPrecision; text-rendering:geometricPrecision; image-rendering:optimizeQuality; fill-rule:evenodd; clip-rule:evenodd"
viewBox="0 0 6667 6667"
 xmlns:xlink="http://www.w3.org/1999/xlink"
 xmlns:rdf="http://www.w3.org/1999/02/22-rdf-syntax-ns#"
 xmlns:cc="http://creativecommons.org/ns#"
 xmlns:dc="http://purl.org/dc/elements/1.1/">
 <defs>
  <style type="text/css">
   <![CDATA[
    .fil0 {fill:white}
   ]]>
  </style>
 </defs>
 <g id="Layer_x0020_1">
  <metadata id="CorelCorpID_0Corel-Layer"/>
  <path id="Blue_1_" class="fil0" d="M6044 6390c186,0 336,-150 336,-336l0 -5408c0,-186 -151,-336 -336,-336l-5408 0c-186,0 -336,150 -336,336l0 5408c0,186 150,336 336,336l2911 0 0 -2355 -792 0 0 -917 792 0 0 -677c0,-785 480,-1212 1181,-1212 335,0 623,25 707,35l0 822 -485 0c-382,0 -456,180 -456,446l0 586 910 0 -119 917 -791 0 0 2355 1550 0 0 0 0 0z"/>
 </g>
</svg>
