<?xml version="1.0" encoding="UTF-8"?>
<!DOCTYPE svg PUBLIC "-//W3C//DTD SVG 1.1//EN" "http://www.w3.org/Graphics/SVG/1.1/DTD/svg11.dtd">
<!-- Creator: CorelDRAW X8 -->
<svg xmlns="http://www.w3.org/2000/svg" xml:space="preserve" width="8.33333in" height="8.33333in" version="1.1" style="shape-rendering:geometricPrecision; text-rendering:geometricPrecision; image-rendering:optimizeQuality; fill-rule:evenodd; clip-rule:evenodd"
viewBox="0 0 8333 8333"
 xmlns:xlink="http://www.w3.org/1999/xlink">
 <defs>
  <style type="text/css">
   <![CDATA[
    .str1 {stroke:white;stroke-width:166.673}
    .str0 {stroke:white;stroke-width:3}
    .fil1 {fill:none}
    .fil0 {fill:white}
   ]]>
  </style>
 </defs>
 <g id="Layer_x0020_1">
  <metadata id="CorelCorpID_0Corel-Layer"/>
  <g id="_2718169372608">
   <g id="_2158045338352">
    <path class="fil0 str0" d="M1945 3554l137 114c151,114 411,206 251,432 233,-24 354,-158 639,-103 368,70 756,459 1154,336 186,-57 303,-231 450,-332 199,-137 416,-2 653,-10 449,-17 1331,-372 1644,-700 -66,17 -187,80 -353,118 -1481,340 -2785,-489 -4575,145l0 0 0 0z"/>
    <path class="fil0 str0" d="M558 4374c63,101 227,295 322,375 650,547 1360,706 2178,408 56,-20 125,-55 176,-66 -61,-73 -343,-182 -581,-690 -60,-129 -86,-325 -231,-239 -172,102 -317,189 -564,198 -410,13 -353,-151 -884,29 -239,80 -298,18 -416,-15z"/>
    <path class="fil0 str0" d="M4935 4076c-188,0 -309,50 -420,135 -239,182 -387,366 -815,241 -219,-64 -322,-164 -388,-183 16,32 10,19 36,47 18,19 24,31 39,47 92,100 324,293 461,355 503,229 2223,-590 2599,-902 70,-58 201,-165 231,-243 -56,14 -129,82 -179,108 -34,18 -55,31 -92,51l-280 144c-210,95 -415,163 -651,196 -191,26 -352,4 -541,4l0 0 0 0z"/>
    <path class="fil0 str0" d="M3080 4722c-13,-76 -16,-77 -3,-154l466 423c181,145 343,250 579,323 123,39 264,57 396,41 45,-5 90,-6 129,-29 -350,-5 -497,-101 -747,-312l-322 -330c-151,-178 -650,-691 -848,-562 -160,103 39,281 144,396l206 204 0 0 0 0z"/>
    <path class="fil0 str0" d="M582 4143c119,72 642,12 795,-13 124,-21 247,-53 371,-63 71,-6 148,-5 218,2l135 28c72,5 18,7 40,-12 6,-17 -31,-82 0,-139 22,-42 61,-52 106,-76 -73,-98 -248,-223 -360,-248 -247,-56 -808,406 -1305,521l0 0 0 0z"/>
    <path class="fil0 str0" d="M6790 3496c253,6 428,239 790,82 68,-29 165,-95 195,-145 -174,75 -311,139 -536,15 -66,-37 -149,-101 -237,-103 -110,-3 -187,68 -212,151l0 0 0 0z"/>
    <path class="fil0 str0" d="M3241 4886c21,26 20,38 47,66 299,313 674,550 1156,500 -434,-40 -901,-288 -1203,-566z"/>
    <path class="fil0 str0" d="M6501 3261c107,-12 146,-50 283,-33 -32,-110 -330,-125 -266,-354 -125,110 -120,293 -17,387z"/>
    <path class="fil0 str0" d="M664 4343c295,21 462,-105 737,-105 140,1 320,55 449,71 111,14 164,2 404,-119 -295,104 -368,100 -443,82 -130,-19 -280,-71 -421,-68 -250,3 -378,111 -726,139l0 0 0 0z"/>
    <path class="fil0 str0" d="M2282 4007c-34,30 -61,23 -88,-11 14,70 62,77 88,11z"/>
   </g>
  </g>
  <circle class="fil1 str1" cx="4167" cy="4167" r="3713"/>
 </g>
</svg>
