<?xml version="1.0" encoding="UTF-8"?>
<!DOCTYPE svg PUBLIC "-//W3C//DTD SVG 1.1//EN" "http://www.w3.org/Graphics/SVG/1.1/DTD/svg11.dtd">
<!-- Creator: CorelDRAW X8 -->
<svg xmlns="http://www.w3.org/2000/svg" xml:space="preserve" width="6.66666in" height="6.66666in" version="1.1" style="shape-rendering:geometricPrecision; text-rendering:geometricPrecision; image-rendering:optimizeQuality; fill-rule:evenodd; clip-rule:evenodd"
viewBox="0 0 6667 6667"
 xmlns:xlink="http://www.w3.org/1999/xlink"
 xmlns:dc="http://purl.org/dc/elements/1.1/"
 xmlns:cc="http://creativecommons.org/ns#"
 xmlns:rdf="http://www.w3.org/1999/02/22-rdf-syntax-ns#"
 xmlns:svg="http://www.w3.org/2000/svg"
 enable-background="new 0 0 405.661 316.98">
 <defs>
  <style type="text/css">
   <![CDATA[
    .fil0 {fill:white}
    .fil1 {fill:white;fill-rule:nonzero}
   ]]>
  </style>
 </defs>
 <g id="Layer_x0020_1">
  <metadata id="CorelCorpID_0Corel-Layer"/>
  <g id="_1718765335808">
   <path class="fil0" d="M3340 353c-1687,0 -3055,1368 -3055,3056 0,1350 875,2495 2089,2899 153,28 209,-66 209,-147 0,-73 -3,-313 -4,-569 -850,185 -1030,-360 -1030,-360 -139,-353 -339,-447 -339,-447 -277,-190 21,-186 21,-186 307,21 468,315 468,315 273,467 715,332 889,254 28,-198 107,-333 194,-409 -678,-77 -1392,-339 -1392,-1510 0,-333 120,-606 315,-820 -32,-77 -136,-388 30,-809 0,0 256,-82 840,314 244,-68 505,-102 765,-103 260,1 521,35 765,103 584,-396 840,-314 840,-314 166,421 62,732 30,809 196,214 314,487 314,820 0,1174 -714,1432 -1395,1508 110,95 207,281 207,566 0,408 -3,737 -3,838 0,81 55,177 210,147 1213,-405 2087,-1550 2087,-2899 0,-1688 -1368,-3056 -3055,-3056z"/>
   <path class="fil1" d="M1442 4740c-7,15 -31,20 -53,10 -22,-10 -34,-31 -27,-46 7,-16 31,-20 53,-10 22,10 34,31 27,46z"/>
   <path class="fil1" d="M1566 4878c-15,14 -43,8 -63,-14 -20,-21 -24,-50 -9,-63 15,-14 43,-7 63,14 20,21 24,50 9,63z"/>
   <path class="fil1" d="M1686 5054c-19,13 -49,1 -68,-26 -19,-27 -19,-60 0,-73 19,-13 49,-1 69,26 18,27 18,60 -1,73z"/>
   <path class="fil1" d="M1851 5224c-17,19 -52,14 -78,-11 -27,-25 -35,-60 -18,-78 17,-19 53,-14 79,11 27,25 35,60 17,78z"/>
   <path class="fil1" d="M2079 5323c-8,24 -42,35 -77,25 -34,-11 -57,-39 -50,-63 7,-24 42,-35 77,-25 34,11 57,39 50,63z"/>
   <path class="fil1" d="M2329 5341c1,25 -29,46 -65,47 -36,1 -66,-20 -66,-45 0,-25 28,-46 65,-46 36,-1 66,19 66,44z"/>
   <path class="fil1" d="M2562 5302c4,24 -21,50 -57,56 -36,7 -69,-8 -73,-33 -5,-25 21,-50 56,-57 37,-6 69,9 74,34z"/>
  </g>
 </g>
</svg>
