<?xml version="1.0" encoding="UTF-8"?>
<!DOCTYPE svg PUBLIC "-//W3C//DTD SVG 1.1//EN" "http://www.w3.org/Graphics/SVG/1.1/DTD/svg11.dtd">
<!-- Creator: CorelDRAW X8 -->
<svg xmlns="http://www.w3.org/2000/svg" xml:space="preserve" width="6.66666in" height="6.66666in" version="1.1" style="shape-rendering:geometricPrecision; text-rendering:geometricPrecision; image-rendering:optimizeQuality; fill-rule:evenodd; clip-rule:evenodd"
viewBox="0 0 6667 6667"
 xmlns:xlink="http://www.w3.org/1999/xlink"
 xmlns:dc="http://purl.org/dc/elements/1.1/"
 xmlns:cc="http://creativecommons.org/ns#"
 xmlns:rdf="http://www.w3.org/1999/02/22-rdf-syntax-ns#"
 xmlns:svg="http://www.w3.org/2000/svg">
 <defs>
  <style type="text/css">
   <![CDATA[
    .fil0 {fill:white}
   ]]>
  </style>
 </defs>
 <g id="Layer_x0020_1">
  <metadata id="CorelCorpID_0Corel-Layer"/>
  <path class="fil0" d="M2465 2348c0,-71 12,-91 86,-91 114,-1 108,-8 216,10 14,24 24,37 24,81 0,185 22,1225 -18,1319l-75 8c-216,11 -233,2 -233,-97l0 -1230zm-1132 0c0,-78 18,-91 98,-91 268,0 228,-6 228,213 0,265 -10,637 1,879 123,0 245,0 368,0 128,0 258,-43 258,95 0,156 22,231 -88,231l-767 0c-86,0 -98,-11 -98,-97l0 -1230zm1662 0c0,-69 21,-91 92,-91 204,0 194,-18 266,82l393 532c39,53 120,173 156,205 18,-117 5,-332 5,-460 0,-263 -36,-359 94,-359 72,0 163,-7 222,16 24,176 10,1061 10,1305 0,87 -13,97 -98,97 -189,0 -188,18 -254,-74l-238 -322c-41,-57 -286,-399 -322,-421 -1,151 0,302 0,452 0,271 37,364 -88,365 -122,1 -105,9 -220,-11 -15,-31 -18,-38 -18,-86l0 -1230zm1442 0c0,-75 10,-91 88,-91l767 0c80,0 98,13 98,91 0,193 22,233 -97,236 -130,3 -439,-12 -530,3l-1 208c139,41 488,-26 619,24l9 77c12,221 0,232 -97,234l-527 -1 -1 219c123,2 246,1 369,1 126,0 256,-44 256,95 0,179 22,231 -86,231l-779 0c-72,0 -88,-25 -88,-97l0 -1230zm1885 682c64,-917 -527,-1602 -988,-1930 -1304,-926 -3270,-805 -4331,297 -217,226 -435,513 -557,905 -129,418 -124,853 21,1266 304,869 1136,1450 2009,1656 168,40 468,65 581,151 350,270 -616,1359 892,405 155,-98 293,-190 439,-292 469,-332 800,-581 1201,-992 381,-388 690,-849 733,-1466z"/>
 </g>
</svg>
