<?xml version="1.0" encoding="UTF-8"?>
<!DOCTYPE svg PUBLIC "-//W3C//DTD SVG 1.1//EN" "http://www.w3.org/Graphics/SVG/1.1/DTD/svg11.dtd">
<!-- Creator: CorelDRAW X8 -->
<svg xmlns="http://www.w3.org/2000/svg" xml:space="preserve" width="8.33333in" height="8.33333in" version="1.1" style="shape-rendering:geometricPrecision; text-rendering:geometricPrecision; image-rendering:optimizeQuality; fill-rule:evenodd; clip-rule:evenodd"
viewBox="0 0 8333 8333"
 xmlns:xlink="http://www.w3.org/1999/xlink"
 enable-background="new 0 0 1200 1200">
 <defs>
  <style type="text/css">
   <![CDATA[
    .str0 {stroke:white;stroke-width:3}
    .fil0 {fill:white}
   ]]>
  </style>
 </defs>
 <g id="Layer_x0020_1">
  <metadata id="CorelCorpID_0Corel-Layer"/>
  <path class="fil0 str0" d="M5582 3885c-212,478 -547,864 -951,1137 -61,-6 -122,-12 -185,-17 163,-97 316,-212 455,-344l-38 -74c0,0 -207,-1 -406,-90 -63,-59 0,0 -55,-412 -20,-145 -100,-45 -185,-52 -86,-9 -56,124 -22,317 0,0 0,0 21,218 -129,91 0,0 -278,25 0,0 -70,89 -224,168 -155,80 -155,-187 -304,-522 -46,-102 171,18 257,25 87,8 133,-30 257,-243 41,-70 -69,-179 -53,-350 17,-171 -159,-42 -543,85 -103,34 -164,166 -164,166 0,0 -179,70 -298,135 -118,66 -179,69 -364,17 -185,-53 -144,55 -77,174l-88 198c0,0 -169,45 -378,-19 0,0 -56,-144 -12,-243 45,-100 12,-293 12,-293 0,0 -139,-91 -84,-215 56,-124 191,-362 97,-552 -94,-191 -74,-301 -83,-752 -7,-450 -370,-104 -814,26 -277,81 -433,65 -517,60 -25,180 -29,359 -15,537 14,6 30,13 48,21 150,67 249,111 445,407 196,294 400,236 495,159 93,-77 242,-11 225,428 -3,98 97,251 -27,464 -124,212 254,232 417,334 138,87 165,232 154,432 58,19 115,36 173,51 -50,17 -106,41 -165,70 -96,-31 -191,-66 -285,-108 -1359,-605 -1973,-2198 -1368,-3559 605,-1360 2199,-1972 3559,-1368 1361,606 1973,2199 1368,3559zm-2464 -3674c-68,88 -248,157 -466,180 -171,17 -226,-24 -319,-62 -329,105 -637,276 -902,505 59,66 215,150 337,205 174,77 315,-38 389,-5 74,33 428,309 616,422 0,0 -138,177 -171,251 -33,75 -6,147 -39,221 -33,75 58,205 185,321 128,115 537,0 537,0 0,0 189,-94 294,-196 105,-103 100,-224 116,-663 0,0 153,-408 182,-543 30,-136 -104,-166 -179,-200 -75,-33 -262,-146 -262,-146l240 -72 293 12c0,0 99,311 187,381 89,68 -30,135 -5,414 0,0 91,-138 183,-277 90,-137 132,-30 300,194l-160 226 -268 0c0,0 0,0 94,190 0,0 0,0 -69,89l-191 94c0,0 0,0 161,41l-100 224 -232 -14c0,0 -127,151 -160,227 -33,74 188,113 188,113 0,0 102,-164 309,-161 207,3 218,-21 218,-21 0,0 0,0 -99,223 -100,224 248,111 281,36 34,-74 -47,-228 20,-378 0,0 -11,-243 154,-347 167,-106 271,60 459,173 187,114 -42,161 -252,97 -209,-64 -140,115 -140,115l121 263c0,0 229,-47 273,-146 45,-100 351,-53 351,-53 0,0 -6,-88 -45,-234 -232,-637 -710,-1184 -1379,-1481 -338,-151 -694,-222 -1043,-222 -1,1 -5,2 -7,4l0 0zm2137 3093c-171,-17 -331,-58 -508,71 -177,131 -445,130 -445,130 -171,252 384,408 472,478 89,69 210,63 205,209 -5,133 -31,206 127,248 148,-178 275,-379 373,-601 56,-125 101,-252 135,-379 -48,-34 -214,-142 -359,-156l0 0z"/>
  <g id="_2158045338352">
   <path class="fil0 str0" d="M2695 5269l123 102c135,102 367,184 224,386 209,-21 317,-141 572,-92 329,63 676,411 1032,301 167,-51 272,-207 403,-297 178,-123 372,-2 584,-9 402,-16 1191,-333 1471,-627 -59,16 -167,72 -316,106 -1325,304 -2491,-438 -4093,130l0 0 0 0z"/>
   <path class="fil0 str0" d="M1454 6002c57,91 203,264 288,336 582,489 1217,631 1949,365 50,-18 112,-49 157,-59 -54,-65 -307,-163 -519,-618 -54,-115 -77,-290 -207,-213 -154,91 -284,169 -505,177 -367,11 -316,-135 -791,26 -213,71 -266,16 -372,-14z"/>
   <path class="fil0 str0" d="M5370 5736c-168,0 -276,44 -376,120 -213,163 -346,328 -729,216 -196,-57 -288,-147 -347,-164 14,29 9,17 32,42 16,17 22,28 35,42 83,90 290,263 413,318 450,205 1989,-528 2325,-807 63,-52 180,-148 207,-217 -50,12 -116,73 -160,96 -31,16 -50,28 -83,46l-250 129c-188,85 -372,146 -583,175 -171,23 -315,4 -484,4l0 0 0 0z"/>
   <path class="fil0 str0" d="M3711 6314c-12,-68 -15,-69 -3,-138l417 378c162,130 307,224 518,289 110,35 236,51 354,37 40,-4 81,-5 116,-26 -314,-4 -445,-90 -669,-279l-288 -295c-135,-160 -581,-619 -759,-503 -143,92 35,251 129,354l185 183 0 0 0 0z"/>
   <path class="fil0 str0" d="M1476 5796c106,64 574,10 711,-12 111,-19 221,-47 332,-56 63,-6 132,-5 195,1l121 26c64,4 16,6 35,-11 6,-15 -27,-74 0,-125 20,-37 55,-46 95,-68 -65,-87 -222,-199 -322,-221 -221,-51 -723,363 -1167,466l0 0 0 0z"/>
   <path class="fil0 str0" d="M7030 5217c226,5 383,214 707,73 61,-26 147,-85 174,-130 -155,68 -278,125 -479,14 -59,-33 -134,-91 -212,-92 -99,-3 -168,61 -190,135l0 0 0 0z"/>
   <path class="fil0 str0" d="M3855 6460c18,24 18,34 42,59 267,281 603,493 1034,448 -388,-36 -806,-258 -1076,-507z"/>
   <path class="fil0 str0" d="M6771 5007c96,-11 131,-45 254,-30 -29,-98 -296,-112 -238,-317 -112,99 -108,262 -16,347z"/>
   <path class="fil0 str0" d="M1549 5975c264,18 413,-94 659,-94 126,1 287,49 402,63 99,13 147,2 362,-106 -264,93 -330,89 -397,73 -116,-17 -250,-63 -376,-61 -224,3 -339,100 -650,125l0 0 0 0z"/>
   <path class="fil0 str0" d="M2997 5674c-31,27 -55,21 -79,-10 12,63 55,69 79,10z"/>
  </g>
 </g>
</svg>
