<?xml version="1.0" encoding="UTF-8"?>
<!DOCTYPE svg PUBLIC "-//W3C//DTD SVG 1.1//EN" "http://www.w3.org/Graphics/SVG/1.1/DTD/svg11.dtd">
<!-- Creator: CorelDRAW X8 -->
<svg xmlns="http://www.w3.org/2000/svg" xml:space="preserve" width="6.66666in" height="6.66666in" version="1.1" style="shape-rendering:geometricPrecision; text-rendering:geometricPrecision; image-rendering:optimizeQuality; fill-rule:evenodd; clip-rule:evenodd"
viewBox="0 0 6667 6667"
 xmlns:xlink="http://www.w3.org/1999/xlink">
 <defs>
  <style type="text/css">
   <![CDATA[
    .fil0 {fill:white}
   ]]>
  </style>
 </defs>
 <g id="Layer_x0020_1">
  <metadata id="CorelCorpID_0Corel-Layer"/>
  <g id="_1753881628864">
   <g>
    <path class="fil0" d="M6377 4847c0,132 -38,255 -97,364l-1912 -2139 1891 -1654c73,117 118,254 118,402l0 3027zm-3027 -1387l2631 -2301c-108,-59 -230,-96 -361,-96l-4540 0c-131,0 -253,37 -360,96l2630 2301zm733 -139l-609 533c-35,31 -79,47 -124,47 -45,0 -89,-16 -125,-47l-609 -533 -1935 2166c116,73 252,116 399,116l4540 0c147,0 283,-43 399,-116l-1936 -2166zm-3642 -1903c-73,117 -118,254 -118,402l0 3027c0,132 37,255 97,364l1912 -2139 -1891 -1654z"/>
   </g>
   <g>
   </g>
   <g>
   </g>
   <g>
   </g>
   <g>
   </g>
   <g>
   </g>
   <g>
   </g>
   <g>
   </g>
   <g>
   </g>
   <g>
   </g>
   <g>
   </g>
   <g>
   </g>
   <g>
   </g>
   <g>
   </g>
   <g>
   </g>
   <g>
   </g>
  </g>
 </g>
</svg>
