<?xml version="1.0" encoding="UTF-8"?>
<!DOCTYPE svg PUBLIC "-//W3C//DTD SVG 1.1//EN" "http://www.w3.org/Graphics/SVG/1.1/DTD/svg11.dtd">
<!-- Creator: CorelDRAW X8 -->
<svg xmlns="http://www.w3.org/2000/svg" xml:space="preserve" width="8.33333in" height="8.33333in" version="1.1" style="shape-rendering:geometricPrecision; text-rendering:geometricPrecision; image-rendering:optimizeQuality; fill-rule:evenodd; clip-rule:evenodd"
viewBox="0 0 8333 8333"
 xmlns:xlink="http://www.w3.org/1999/xlink">
 <defs>
  <style type="text/css">
   <![CDATA[
    .str0 {stroke:white;stroke-width:3}
    .fil0 {fill:white}
   ]]>
  </style>
 </defs>
 <g id="Layer_x0020_1">
  <metadata id="CorelCorpID_0Corel-Layer"/>
  <g id="_2718172154720">
   <g id="_2158045338352">
    <path class="fil0 str0" d="M1451 1002l77 64c85,64 231,115 141,242 131,-13 199,-88 359,-58 206,40 424,258 648,189 104,-32 170,-130 252,-186 112,-77 234,-1 367,-6 252,-10 747,-209 923,-393 -37,10 -105,45 -198,66 -832,191 -1564,-274 -2569,82l0 0z"/>
    <path class="fil0 str0" d="M673 1462c35,57 127,166 180,211 365,307 764,396 1223,229 32,-12 70,-31 99,-37 -34,-41 -193,-103 -326,-388 -34,-72 -49,-182 -130,-134 -96,57 -178,106 -317,111 -230,7 -198,-85 -496,16 -134,45 -167,11 -233,-8z"/>
    <path class="fil0 str0" d="M3130 1295c-106,0 -174,28 -236,76 -134,102 -217,205 -458,135 -122,-36 -180,-92 -217,-103 9,18 5,11 20,26 10,11 13,18 22,27 51,56 182,164 259,199 282,129 1247,-331 1459,-506 39,-33 112,-93 129,-137 -31,8 -72,46 -100,61 -19,10 -31,17 -52,29l-157 80c-118,54 -233,92 -366,111 -107,14 -197,2 -303,2l0 0z"/>
    <path class="fil0 str0" d="M2088 1657c-7,-42 -9,-43 -1,-86l261 237c102,82 193,141 325,182 69,22 149,32 223,23 25,-3 50,-4 72,-17 -196,-2 -279,-56 -419,-175l-181 -185c-85,-100 -365,-388 -476,-315 -90,57 22,157 81,222l115 114 0 0z"/>
    <path class="fil0 str0" d="M686 1332c67,41 361,7 446,-7 70,-12 139,-30 209,-35 40,-4 83,-3 122,1l76 16c40,2 10,3 22,-7 4,-10 -17,-46 0,-78 13,-24 35,-29 60,-43 -41,-55 -139,-125 -202,-139 -139,-32 -454,228 -733,292l0 0z"/>
    <path class="fil0 str0" d="M4171 969c142,4 240,134 444,46 38,-16 92,-53 109,-81 -98,42 -175,78 -301,8 -37,-21 -83,-56 -133,-58 -62,-1 -105,39 -119,85l0 0z"/>
    <path class="fil0 str0" d="M2179 1749c12,15 11,22 26,38 168,175 379,308 649,280 -243,-22 -506,-161 -675,-318z"/>
    <path class="fil0 str0" d="M4009 837c60,-6 82,-28 159,-18 -18,-62 -186,-70 -150,-199 -70,62 -67,164 -9,217z"/>
    <path class="fil0 str0" d="M732 1445c166,11 260,-59 414,-59 78,0 180,31 252,40 62,7 92,1 227,-67 -166,58 -207,56 -249,46 -73,-11 -157,-40 -236,-38 -141,1 -212,62 -408,78l0 0z"/>
    <path class="fil0 str0" d="M1640 1256c-19,17 -34,13 -49,-6 8,39 35,43 49,6z"/>
   </g>
  </g>
  <g id="_2718172153664">
   <g id="_2158045338352_0">
    <path class="fil0 str0" d="M4744 1587l77 64c85,64 231,116 141,243 131,-14 199,-89 359,-58 206,39 424,258 647,189 105,-32 170,-130 253,-187 112,-77 234,-1 367,-5 252,-10 747,-209 922,-393 -37,9 -105,45 -198,66 -831,191 -1563,-274 -2568,81l0 0z"/>
    <path class="fil0 str0" d="M3965 2048c36,56 128,165 181,210 365,307 764,397 1223,229 31,-11 70,-31 99,-37 -35,-41 -193,-102 -327,-387 -33,-73 -48,-183 -129,-134 -97,57 -178,106 -317,111 -230,7 -198,-85 -496,16 -134,45 -167,10 -234,-8z"/>
    <path class="fil0 str0" d="M6423 1880c-106,0 -174,29 -236,76 -134,102 -218,206 -458,136 -123,-36 -181,-93 -218,-103 9,18 6,10 21,26 10,11 13,18 22,27 51,56 181,164 258,199 283,128 1248,-331 1459,-507 40,-32 113,-92 130,-136 -31,8 -72,46 -101,61 -19,10 -30,17 -51,28l-157 81c-118,54 -233,92 -366,110 -107,15 -197,2 -303,2l0 0z"/>
    <path class="fil0 str0" d="M5381 2243c-7,-43 -9,-43 -1,-86l261 237c102,81 193,140 325,181 69,22 148,32 222,23 26,-2 51,-3 73,-16 -197,-3 -279,-57 -419,-175l-181 -185c-85,-100 -365,-388 -476,-316 -90,58 22,158 81,223l115 114 0 0z"/>
    <path class="fil0 str0" d="M3979 1918c67,40 360,7 446,-7 70,-12 139,-30 208,-36 40,-3 84,-2 123,2l76 15c40,3 10,4 22,-6 3,-10 -17,-47 0,-79 12,-23 34,-29 60,-42 -41,-55 -140,-125 -203,-139 -138,-32 -453,228 -732,292l0 0z"/>
    <path class="fil0 str0" d="M7464 1555c142,3 240,134 443,46 38,-16 93,-53 110,-82 -98,43 -175,79 -301,9 -37,-21 -84,-57 -133,-58 -62,-2 -105,38 -119,85l0 0z"/>
    <path class="fil0 str0" d="M5472 2335c11,15 11,21 26,37 168,176 378,309 649,281 -244,-23 -506,-162 -675,-318z"/>
    <path class="fil0 str0" d="M7302 1423c60,-7 82,-28 158,-19 -17,-61 -185,-70 -149,-198 -70,61 -67,164 -9,217z"/>
    <path class="fil0 str0" d="M4025 2030c166,12 259,-59 414,-59 78,1 179,31 252,40 62,8 92,1 227,-67 -166,59 -207,57 -249,46 -73,-10 -157,-39 -237,-38 -140,2 -212,63 -407,78l0 0z"/>
    <path class="fil0 str0" d="M4933 1842c-19,17 -34,13 -49,-6 8,39 35,43 49,6z"/>
   </g>
  </g>
  <g id="_2718170497584">
   <g id="_2158045338352_1">
    <path class="fil0 str0" d="M2221 3393l77 64c85,64 231,115 141,242 131,-13 199,-89 359,-58 207,40 424,258 648,189 104,-32 170,-130 252,-186 112,-77 234,-2 367,-6 252,-10 747,-209 923,-393 -37,10 -105,45 -198,66 -832,191 -1564,-274 -2569,82l0 0z"/>
    <path class="fil0 str0" d="M1443 3853c35,57 127,166 181,210 364,307 763,397 1222,229 32,-11 70,-30 99,-37 -34,-41 -193,-102 -326,-387 -34,-72 -48,-182 -130,-134 -96,57 -178,106 -316,111 -231,7 -199,-85 -497,16 -134,45 -167,10 -233,-8z"/>
    <path class="fil0 str0" d="M3900 3686c-106,0 -174,28 -236,75 -134,103 -217,206 -457,136 -123,-36 -181,-92 -218,-103 9,18 5,11 20,26 10,11 13,18 22,27 52,56 182,164 259,199 282,129 1248,-331 1459,-506 39,-33 113,-93 129,-137 -31,8 -72,46 -100,61 -19,10 -31,17 -52,29l-157 80c-118,54 -233,92 -365,110 -108,15 -198,3 -304,3l0 0z"/>
    <path class="fil0 str0" d="M2859 4048c-8,-42 -9,-43 -2,-86l261 237c102,82 193,141 326,182 69,21 148,32 222,23 25,-3 50,-4 72,-17 -196,-2 -279,-56 -419,-175l-181 -185c-85,-100 -365,-388 -476,-316 -90,58 22,158 81,223l116 114 0 0z"/>
    <path class="fil0 str0" d="M1456 3723c67,41 361,7 447,-7 69,-12 138,-30 208,-35 40,-4 83,-3 122,1l76 15c40,3 10,4 22,-6 4,-10 -17,-46 0,-78 13,-24 35,-30 60,-43 -41,-55 -139,-125 -202,-139 -139,-32 -454,228 -733,292l0 0z"/>
    <path class="fil0 str0" d="M4941 3360c142,3 240,134 444,46 38,-16 92,-53 109,-81 -98,42 -174,78 -301,8 -37,-21 -83,-57 -133,-58 -62,-1 -105,38 -119,85l0 0z"/>
    <path class="fil0 str0" d="M2949 4140c12,15 11,22 26,37 168,176 379,309 649,281 -243,-22 -506,-162 -675,-318z"/>
    <path class="fil0 str0" d="M4779 3228c60,-7 82,-28 159,-18 -18,-62 -185,-71 -149,-199 -71,62 -68,164 -10,217z"/>
    <path class="fil0 str0" d="M1502 3836c166,11 260,-59 414,-59 79,0 180,30 252,39 62,8 92,2 227,-66 -166,58 -207,56 -249,46 -73,-11 -157,-40 -236,-39 -140,2 -212,63 -408,79l0 0z"/>
    <path class="fil0 str0" d="M2411 3647c-19,17 -35,13 -50,-6 8,39 35,43 50,6z"/>
   </g>
  </g>
  <g id="_2718170495248">
   <g id="_2158045338352_2">
    <path class="fil0 str0" d="M4960 5511l77 64c85,64 231,115 141,242 131,-13 199,-88 359,-58 206,40 424,258 648,189 104,-32 170,-130 252,-186 112,-77 234,-1 367,-6 252,-9 747,-209 923,-393 -37,10 -105,45 -198,66 -832,191 -1564,-274 -2569,82l0 0z"/>
    <path class="fil0 str0" d="M4182 5971c35,57 127,166 180,211 365,307 764,396 1223,229 32,-12 70,-31 99,-37 -34,-41 -193,-103 -326,-388 -34,-72 -49,-182 -130,-134 -97,57 -178,106 -317,111 -230,8 -198,-85 -496,17 -134,44 -167,10 -233,-9z"/>
    <path class="fil0 str0" d="M6639 5804c-106,0 -174,28 -236,76 -134,102 -217,205 -458,135 -122,-36 -180,-92 -217,-103 9,18 5,11 20,27 10,10 13,17 22,26 51,56 182,164 259,199 282,129 1247,-331 1459,-506 39,-33 112,-93 129,-137 -31,8 -72,46 -100,61 -19,10 -31,17 -52,29l-157 81c-118,53 -233,91 -366,110 -107,14 -197,2 -303,2l0 0z"/>
    <path class="fil0 str0" d="M5597 6166c-7,-42 -9,-43 -1,-86l261 237c102,82 193,141 325,182 69,22 149,32 223,23 25,-3 50,-4 72,-16 -196,-3 -279,-57 -419,-176l-181 -185c-85,-100 -365,-388 -476,-315 -90,57 22,157 81,222l115 114 0 0z"/>
    <path class="fil0 str0" d="M4195 5841c67,41 361,7 446,-7 70,-12 139,-30 209,-35 40,-4 83,-3 122,1l76 16c40,2 10,4 22,-7 4,-10 -17,-46 0,-78 13,-24 35,-29 60,-43 -41,-55 -139,-125 -202,-139 -139,-31 -454,228 -733,292l0 0z"/>
    <path class="fil0 str0" d="M7680 5478c142,4 240,134 444,46 38,-16 92,-53 109,-81 -98,42 -175,78 -301,8 -37,-20 -84,-56 -133,-58 -62,-1 -105,39 -119,85l0 0z"/>
    <path class="fil0 str0" d="M5688 6259c12,14 11,21 26,37 168,175 379,308 649,280 -244,-22 -506,-161 -675,-317z"/>
    <path class="fil0 str0" d="M7518 5346c60,-6 82,-28 159,-18 -18,-62 -186,-70 -150,-199 -70,62 -67,165 -9,217z"/>
    <path class="fil0 str0" d="M4241 5954c166,11 260,-59 414,-59 78,0 180,31 252,40 62,7 92,1 227,-67 -166,58 -207,56 -249,46 -73,-11 -157,-40 -236,-38 -141,1 -212,62 -408,78l0 0z"/>
    <path class="fil0 str0" d="M5149 5765c-19,17 -34,13 -49,-6 8,39 35,43 49,6z"/>
   </g>
  </g>
  <g id="_2718164013952">
   <g id="_2158045338352_3">
    <path class="fil0 str0" d="M1180 5219l77 64c85,64 231,116 141,243 131,-14 199,-89 359,-58 206,39 424,258 648,189 104,-32 170,-130 252,-187 112,-77 234,-1 367,-5 252,-10 747,-209 923,-393 -37,9 -105,44 -198,66 -832,191 -1564,-275 -2569,81l0 0z"/>
    <path class="fil0 str0" d="M402 5680c35,56 127,165 180,210 365,307 764,396 1223,229 32,-11 70,-31 99,-37 -34,-41 -193,-102 -326,-387 -34,-73 -49,-183 -130,-134 -97,57 -178,106 -317,111 -230,7 -198,-85 -496,16 -134,45 -167,10 -233,-8z"/>
    <path class="fil0 str0" d="M2859 5512c-106,0 -174,28 -236,76 -134,102 -217,206 -458,135 -122,-36 -180,-92 -217,-102 9,18 5,10 20,26 10,11 13,17 22,26 51,57 182,165 259,200 282,128 1247,-332 1459,-507 39,-32 112,-92 129,-136 -31,8 -72,46 -100,61 -19,10 -31,17 -52,28l-157 81c-118,53 -233,91 -366,110 -107,15 -197,2 -303,2l0 0z"/>
    <path class="fil0 str0" d="M1817 5875c-7,-43 -9,-43 -1,-87l261 238c102,81 193,140 325,181 69,22 149,32 223,23 25,-3 50,-3 72,-16 -196,-3 -279,-57 -419,-175l-181 -185c-85,-100 -365,-388 -476,-316 -90,58 22,158 81,222l115 115 0 0z"/>
    <path class="fil0 str0" d="M415 5550c67,40 361,7 446,-7 70,-12 139,-30 209,-36 40,-3 83,-3 122,1l76 16c40,3 10,4 22,-7 4,-9 -17,-46 0,-78 13,-23 35,-29 60,-42 -41,-55 -139,-126 -202,-140 -139,-31 -454,228 -733,293l0 0z"/>
    <path class="fil0 str0" d="M3900 5187c142,3 240,134 444,46 38,-17 92,-54 109,-82 -98,42 -175,78 -301,9 -37,-21 -84,-57 -133,-58 -62,-2 -105,38 -119,85l0 0z"/>
    <path class="fil0 str0" d="M1908 5967c12,15 11,21 26,37 168,176 379,309 649,281 -244,-23 -506,-162 -675,-318z"/>
    <path class="fil0 str0" d="M3738 5055c60,-7 82,-28 159,-19 -18,-62 -186,-70 -150,-199 -70,62 -67,165 -9,218z"/>
    <path class="fil0 str0" d="M461 5662c166,12 260,-59 414,-59 78,1 180,31 252,40 62,8 92,1 227,-67 -166,59 -207,56 -249,46 -73,-10 -157,-40 -236,-38 -141,2 -212,62 -408,78l0 0z"/>
    <path class="fil0 str0" d="M1369 5474c-19,16 -34,12 -49,-7 8,40 35,44 49,7z"/>
   </g>
  </g>
 </g>
</svg>
