<?xml version="1.0" encoding="UTF-8"?>
<!DOCTYPE svg PUBLIC "-//W3C//DTD SVG 1.1//EN" "http://www.w3.org/Graphics/SVG/1.1/DTD/svg11.dtd">
<!-- Creator: CorelDRAW X8 -->
<svg xmlns="http://www.w3.org/2000/svg" xml:space="preserve" width="8.33333in" height="8.33333in" version="1.1" style="shape-rendering:geometricPrecision; text-rendering:geometricPrecision; image-rendering:optimizeQuality; fill-rule:evenodd; clip-rule:evenodd"
viewBox="0 0 8333 8333"
 xmlns:xlink="http://www.w3.org/1999/xlink">
 <defs>
  <style type="text/css">
   <![CDATA[
    .str1 {stroke:white;stroke-width:3}
    .str0 {stroke:white;stroke-width:3}
    .fil0 {fill:white}
   ]]>
  </style>
 </defs>
 <g id="Layer_x0020_1">
  <metadata id="CorelCorpID_0Corel-Layer"/>
  <g id="_2158075744048">
   <path class="fil0 str0" d="M3569 332l46 38c50,38 136,68 83,143 77,-8 117,-52 212,-34 121,24 250,152 382,112 61,-19 100,-77 149,-111 66,-45 138,0 216,-3 149,-5 441,-123 545,-231 -22,5 -62,26 -117,39 -491,112 -923,-162 -1516,47z"/>
   <path class="fil0 str0" d="M3110 604c21,34 75,98 107,124 215,181 450,234 721,136 19,-7 41,-19 58,-22 -20,-25 -113,-61 -192,-229 -20,-43 -29,-108 -77,-79 -57,34 -104,63 -186,65 -136,5 -117,-50 -293,10 -79,27 -99,6 -138,-5z"/>
   <path class="fil0 str0" d="M4560 505c-63,0 -103,17 -139,45 -79,60 -129,121 -270,80 -73,-21 -107,-54 -129,-61 6,11 4,7 12,16 6,6 8,10 13,15 31,33 107,98 153,118 166,76 736,-195 860,-299 24,-19 67,-54 77,-80 -19,4 -43,27 -59,36 -12,6 -19,10 -31,16l-92 48c-70,32 -138,54 -216,65 -63,9 -117,1 -179,1z"/>
   <path class="fil0 str0" d="M3945 719c-4,-25 -5,-25 -1,-51l155 140c60,48 113,83 191,108 41,12 88,18 132,13 14,-2 29,-2 42,-9 -116,-2 -164,-34 -247,-104l-107 -109c-50,-59 -215,-229 -281,-186 -52,34 13,93 48,131l68 67z"/>
   <path class="fil0 str0" d="M3118 528c39,24 213,4 263,-5 41,-7 82,-17 123,-21 24,-1 49,-1 72,1l45 9c24,2 6,3 13,-4 2,-5 -10,-27 0,-46 8,-13 20,-17 35,-25 -24,-32 -82,-73 -119,-82 -82,-19 -267,134 -432,173z"/>
   <path class="fil0 str0" d="M5174 313c84,2 142,80 262,28 22,-10 54,-32 64,-48 -58,24 -103,46 -177,4 -22,-12 -50,-33 -79,-34 -36,-1 -62,23 -70,50z"/>
   <path class="fil0 str0" d="M3999 774c7,8 6,12 15,22 99,103 223,182 383,165 -144,-13 -298,-95 -398,-187z"/>
   <path class="fil0 str0" d="M5078 236c36,-4 49,-17 94,-11 -10,-37 -109,-42 -88,-118 -41,37 -40,97 -6,129z"/>
   <path class="fil0 str0" d="M3145 594c98,7 153,-35 244,-35 47,0 106,18 149,24 37,4 54,0 134,-40 -98,35 -122,33 -147,27 -43,-6 -93,-23 -139,-22 -83,1 -125,37 -241,46z"/>
   <path class="fil0 str0" d="M3681 483c-11,9 -20,7 -29,-4 5,23 20,26 29,4z"/>
  </g>
  <path class="fil0 str1" d="M4708 1027l480 830 -2042 0 479 -830 1083 0zm-1817 5594c97,0 171,23 223,71 52,47 78,113 78,198 0,84 -26,151 -76,200 -51,50 -128,74 -232,74l-185 0 0 -543 192 0 0 0zm6 436c55,0 98,-14 128,-42 30,-28 45,-69 45,-122 0,-53 -15,-95 -45,-123 -30,-29 -76,-44 -137,-44l-68 0 0 331 77 0 0 0zm481 -102c0,34 10,62 30,84 19,21 44,32 74,32 31,0 55,-11 75,-32 19,-22 29,-50 29,-84 0,-34 -10,-62 -29,-84 -20,-22 -44,-33 -75,-33 -30,0 -55,11 -74,33 -20,22 -30,50 -30,84zm325 0c0,61 -21,112 -62,153 -42,42 -95,63 -159,63 -63,0 -116,-21 -158,-63 -42,-41 -63,-92 -63,-153 0,-61 21,-112 63,-153 42,-42 95,-63 158,-63 64,0 117,21 159,63 41,41 62,92 62,153zm471 -16l0 225 -117 0 0 -228c0,-33 -5,-58 -16,-73 -10,-16 -26,-24 -49,-24 -22,0 -42,9 -59,26 -18,16 -27,41 -27,74l0 225 -116 0 0 -418 116 0 0 47c33,-36 69,-54 111,-54 26,0 50,8 72,23 21,16 38,35 49,57 16,-25 37,-45 64,-59 28,-14 55,-21 83,-21 49,0 88,15 119,44 30,29 45,72 45,127l0 254 -118 0 0 -228c0,-65 -23,-97 -71,-97 -23,0 -43,9 -60,26 -17,16 -26,41 -26,74l0 0zm736 225l-110 0 0 -50c-30,38 -67,57 -111,57 -45,0 -82,-13 -112,-39 -30,-26 -45,-60 -45,-103 0,-42 15,-74 47,-96 31,-21 73,-32 127,-32l87 0 0 -2c0,-44 -23,-67 -71,-67 -20,0 -41,4 -64,12 -22,8 -41,18 -57,30l-52 -75c55,-40 118,-60 188,-60 51,0 92,13 125,38 32,25 48,66 48,121l0 266 0 0zm-118 -159l0 -20 -73 0c-46,0 -70,14 -70,43 0,15 6,27 17,35 11,8 27,12 48,12 21,0 39,-6 55,-19 15,-13 23,-30 23,-51l0 0zm341 159l-117 0 0 -418 117 0 0 418zm-107 -471c-13,-14 -20,-30 -20,-49 0,-19 7,-35 20,-49 13,-13 30,-19 49,-19 19,0 35,6 48,19 14,14 20,30 20,49 0,19 -6,35 -20,49 -13,13 -29,19 -48,19 -19,0 -36,-6 -49,-19zm334 238l0 233 -116 0 0 -418 116 0 0 47c35,-36 75,-54 119,-54 44,0 81,15 111,47 30,31 45,72 45,124l0 254 -117 0 0 -236c0,-64 -24,-97 -71,-97 -23,0 -43,9 -61,26 -17,17 -26,41 -26,74l0 0zm-2802 -1286l113 0 0 207 190 -207 140 0 -201 223c17,24 49,69 96,135 47,65 82,114 105,147l-132 0 -148 -200 -50 57 0 143 -113 0 0 -505 0 0zm610 505l-108 0 0 -389 108 0 0 389zm-99 -438c-12,-13 -19,-28 -19,-45 0,-18 7,-33 19,-46 12,-12 27,-18 45,-18 18,0 33,6 45,18 12,13 19,28 19,46 0,17 -7,32 -19,45 -12,12 -27,18 -45,18 -18,0 -33,-6 -45,-18zm310 221l0 217 -108 0 0 -389 108 0 0 44c33,-34 70,-50 111,-50 41,0 75,14 103,43 27,29 41,67 41,116l0 236 -108 0 0 -220c0,-60 -22,-89 -66,-89 -22,0 -41,7 -57,23 -16,16 -24,39 -24,69l0 0zm626 14c0,-31 -9,-55 -26,-73 -18,-18 -39,-27 -65,-27 -25,0 -47,9 -66,27 -18,18 -28,42 -28,73 0,31 9,56 27,75 18,19 41,28 67,28 26,0 47,-9 65,-28 17,-19 26,-44 26,-75zm15 137c-34,38 -77,57 -128,57 -51,0 -93,-17 -128,-52 -35,-34 -53,-80 -53,-138 0,-57 18,-104 54,-141 36,-37 77,-55 123,-55 46,0 85,19 115,57l0 -52 108 0 0 339c0,35 -6,66 -18,93 -12,27 -28,48 -48,63 -40,32 -87,48 -142,48 -28,0 -58,-5 -88,-14 -30,-10 -57,-23 -79,-40l42 -82c35,27 73,41 113,41 39,0 71,-10 94,-30 23,-20 35,-51 35,-94zm350 72c-46,0 -87,-20 -124,-59 -36,-39 -54,-87 -54,-145 0,-58 18,-105 53,-142 35,-37 76,-55 124,-55 47,0 85,16 115,50l0 -191 108 0 0 536 -108 0 0 -52c-30,39 -68,58 -114,58zm-69 -200c0,31 10,57 29,77 18,20 40,30 65,30 25,0 47,-10 64,-30 18,-20 27,-46 27,-77 0,-32 -9,-58 -27,-79 -17,-21 -39,-31 -64,-31 -26,0 -48,10 -66,31 -18,22 -28,48 -28,79zm481 -1c0,32 9,58 27,78 18,20 41,30 69,30 28,0 51,-10 69,-30 18,-20 27,-46 27,-78 0,-31 -9,-57 -27,-78 -18,-20 -41,-30 -69,-30 -28,0 -51,10 -69,30 -18,21 -27,47 -27,78zm302 0c0,57 -20,104 -59,143 -39,38 -88,58 -147,58 -59,0 -108,-20 -147,-58 -39,-39 -58,-86 -58,-143 0,-56 19,-103 58,-142 39,-39 88,-58 147,-58 59,0 108,19 147,58 39,39 59,86 59,142zm436 -15l0 210 -109 0 0 -213c0,-30 -4,-53 -14,-67 -9,-15 -24,-22 -45,-22 -21,0 -40,8 -56,23 -16,16 -24,39 -24,69l0 210 -108 0 0 -389 108 0 0 44c30,-33 64,-50 103,-50 24,0 46,7 66,21 20,15 35,32 46,53 14,-24 35,-42 60,-55 25,-13 51,-19 76,-19 46,0 83,13 111,40 27,28 41,67 41,119l0 236 -109 0 0 -213c0,-59 -22,-89 -65,-89 -22,0 -41,8 -57,23 -16,16 -24,39 -24,69l0 0zm-2412 -1179c72,0 124,14 156,42 33,28 49,71 49,128 0,58 -16,100 -50,126 -34,27 -85,40 -154,40l-62 0 0 130 -104 0 0 -466 165 0 0 0zm9 246c35,0 59,-7 71,-21 12,-14 19,-34 19,-61 0,-27 -8,-46 -25,-57 -16,-12 -41,-17 -75,-17l-60 0 0 156 70 0zm368 27l0 193 -100 0 0 -494 100 0 0 176c30,-31 64,-46 101,-46 38,0 70,13 95,40 26,26 39,62 39,106l0 218 -100 0 0 -196c0,-55 -20,-82 -61,-82 -20,0 -37,7 -52,21 -15,15 -22,36 -22,64l0 0zm388 335c-35,0 -69,-14 -100,-43l46 -74c17,17 34,25 52,25 9,0 17,-5 24,-14 6,-9 10,-19 10,-29 0,-10 -47,-132 -139,-365l107 0 87 223 87 -223 107 0 -167 422c-9,25 -25,44 -45,57 -21,14 -44,21 -69,21zm431 -142l-100 0 0 -494 100 0 0 494zm326 -165l0 -193 101 0 0 358 -101 0 0 -47c-25,35 -57,53 -96,53 -40,0 -73,-13 -99,-37 -27,-25 -40,-61 -40,-110l0 -217 100 0 0 195c0,55 21,83 61,83 20,0 37,-7 52,-22 15,-14 22,-35 22,-63l0 0zm525 -28l0 193 -101 0 0 -196c0,-28 -4,-49 -13,-62 -9,-14 -23,-20 -42,-20 -19,0 -36,7 -51,21 -15,15 -23,36 -23,64l0 193 -100 0 0 -358 100 0 0 40c28,-31 59,-46 95,-46 23,0 43,6 62,20 18,13 32,29 41,48 14,-21 33,-38 56,-50 23,-12 47,-18 70,-18 43,0 77,12 102,37 26,26 39,62 39,109l0 218 -101 0 0 -196c0,-55 -20,-82 -60,-82 -20,0 -38,7 -52,21 -15,15 -22,36 -22,64l0 0zm-1552 -742c47,0 85,-18 115,-55l61 63c-48,54 -105,82 -171,82 -66,0 -120,-21 -163,-63 -42,-41 -64,-94 -64,-157 0,-64 22,-116 65,-159 44,-42 97,-63 160,-63 70,0 128,26 176,80l-60 67c-30,-37 -67,-56 -112,-56 -36,0 -67,11 -92,35 -25,23 -38,55 -38,95 0,39 12,71 36,95 24,24 53,36 87,36l0 0zm334 85l-92 0 0 -454 92 0 0 454zm366 0l-86 0 0 -40c-24,30 -53,45 -88,45 -35,0 -64,-11 -88,-31 -23,-20 -35,-47 -35,-80 0,-34 12,-59 37,-76 24,-17 57,-25 100,-25l68 0 0 -2c0,-35 -18,-52 -55,-52 -16,0 -33,3 -51,9 -17,6 -32,14 -45,24l-41 -60c44,-31 93,-47 148,-47 40,0 73,10 98,30 25,20 38,52 38,95l0 210 0 0zm-92 -126l0 -16 -58 0c-36,0 -55,12 -55,35 0,12 5,21 13,27 9,6 22,9 38,9 16,0 31,-5 43,-15 12,-10 19,-23 19,-40l0 0zm423 23c0,33 -12,59 -36,78 -23,20 -54,30 -90,30 -25,0 -50,-5 -77,-14 -26,-8 -50,-21 -71,-38l40 -58c34,27 71,40 109,40 12,0 22,-2 29,-7 7,-5 10,-11 10,-19 0,-8 -5,-15 -14,-21 -10,-7 -24,-13 -42,-19 -18,-5 -32,-10 -41,-14 -10,-4 -21,-10 -33,-18 -25,-15 -37,-38 -37,-69 0,-30 12,-55 36,-74 25,-19 56,-29 95,-29 39,0 77,13 116,39l-34 62c-29,-20 -57,-30 -85,-30 -29,0 -43,8 -43,23 0,9 5,16 14,21 9,5 23,10 44,17 21,6 36,11 44,15 9,3 20,9 32,16 23,14 34,37 34,69l0 0zm318 0c0,33 -12,59 -36,78 -24,20 -54,30 -91,30 -24,0 -49,-5 -76,-14 -26,-8 -50,-21 -71,-38l40 -58c34,27 71,40 109,40 12,0 21,-2 28,-7 7,-5 11,-11 11,-19 0,-8 -5,-15 -15,-21 -9,-7 -23,-13 -41,-19 -18,-5 -32,-10 -42,-14 -9,-4 -20,-10 -32,-18 -25,-15 -38,-38 -38,-69 0,-30 13,-55 37,-74 24,-19 56,-29 95,-29 38,0 77,13 116,39l-34 62c-29,-20 -57,-30 -86,-30 -28,0 -42,8 -42,23 0,9 4,16 13,21 9,5 24,10 45,17 21,6 35,11 44,15 9,3 19,9 32,16 23,14 34,37 34,69l0 0zm-1258 -1024c0,-34 -11,-64 -33,-88 -22,-25 -50,-37 -82,-37 -33,0 -60,12 -82,37 -22,24 -33,54 -33,88 0,35 11,65 33,89 22,24 49,36 82,36 32,0 60,-12 82,-36 22,-24 33,-54 33,-89zm30 143c-40,39 -88,58 -145,58 -58,0 -106,-19 -145,-58 -40,-38 -59,-86 -59,-143 0,-57 19,-105 59,-143 39,-38 87,-57 145,-57 57,0 105,19 145,57 39,38 58,86 58,143 0,57 -19,105 -58,143zm281 -172c-25,0 -44,9 -56,27 -12,17 -18,41 -18,69l0 130 -84 0 0 -299 84 0 0 39c11,-12 24,-22 40,-31 16,-8 33,-13 49,-13l1 78 -16 0 0 0zm187 230c-36,0 -67,-15 -95,-45 -28,-30 -42,-67 -42,-111 0,-45 14,-81 41,-110 27,-28 59,-42 95,-42 36,0 66,13 89,38l0 -146 83 0 0 412 -83 0 0 -40c-24,30 -53,44 -88,44l0 0zm-53 -153c0,24 7,44 22,59 14,15 31,23 50,23 20,0 36,-8 50,-23 13,-15 20,-35 20,-59 0,-25 -7,-45 -20,-61 -14,-16 -31,-24 -50,-24 -20,0 -37,8 -51,24 -14,17 -21,37 -21,61zm562 106c-34,31 -73,47 -119,47 -45,0 -83,-14 -112,-42 -30,-28 -45,-65 -45,-112 0,-47 15,-85 46,-112 30,-28 65,-42 107,-42 41,0 76,12 104,37 29,25 43,59 43,102l0 45 -217 0c2,16 11,29 25,40 15,10 31,15 49,15 29,0 53,-9 72,-29l47 51 0 0zm-60 -137c-2,-17 -9,-31 -20,-41 -12,-9 -26,-14 -42,-14 -17,0 -32,5 -45,15 -14,10 -22,23 -24,40l131 0 0 0zm302 -46c-25,0 -44,9 -56,27 -12,17 -18,41 -18,69l0 130 -84 0 0 -299 84 0 0 39c10,-12 24,-22 40,-31 16,-8 32,-13 49,-13l1 78 -16 0 0 0zm-1351 -1090l0 69 -162 0 0 75 154 0 0 69 -154 0 0 137 -78 0 0 -350 240 0 0 0zm280 350l-71 0 0 -33c-19,25 -43,37 -72,37 -28,0 -52,-8 -71,-25 -20,-16 -29,-38 -29,-66 0,-27 10,-48 30,-62 20,-13 47,-20 82,-20l56 0 0 -2c0,-28 -16,-43 -46,-43 -13,0 -27,3 -41,8 -15,5 -27,12 -37,19l-33 -48c35,-26 75,-39 121,-39 32,0 59,8 80,25 20,16 31,42 31,77l0 172 0 0zm-76 -103l0 -13 -47 0c-30,0 -45,10 -45,28 0,10 4,17 11,23 7,5 17,7 31,7 13,0 25,-4 35,-12 10,-8 15,-19 15,-33zm391 -42l0 145 -75 0 0 -147c0,-22 -4,-37 -10,-47 -7,-10 -17,-15 -32,-15 -14,0 -27,5 -38,16 -11,11 -17,27 -17,48l0 145 -75 0 0 -269 75 0 0 30c21,-23 44,-35 71,-35 17,0 33,5 46,15 14,10 25,22 32,37 10,-17 24,-29 41,-38 18,-9 36,-14 53,-14 32,0 57,10 77,29 19,18 29,46 29,81l0 164 -76 0 0 -147c0,-42 -15,-62 -45,-62 -15,0 -28,5 -39,16 -11,11 -17,27 -17,48l0 0zm320 145l-75 0 0 -269 75 0 0 269zm-69 -303c-9,-9 -13,-19 -13,-32 0,-12 4,-22 13,-31 8,-8 19,-13 31,-13 13,0 23,5 31,13 9,9 13,19 13,31 0,13 -4,23 -13,32 -8,8 -18,12 -31,12 -12,0 -23,-4 -31,-12zm215 303l-75 0 0 -371 75 0 0 371zm117 106c-26,0 -51,-11 -74,-32l34 -56c12,13 25,19 39,19 7,0 13,-4 18,-10 5,-7 7,-15 7,-22 0,-8 -34,-99 -104,-274l80 0 66 167 65 -167 80 0 -125 317c-7,18 -19,32 -34,43 -16,10 -33,15 -52,15l0 0zm-1068 -1146l70 0 0 110c-31,35 -73,52 -128,52 -45,0 -84,-15 -115,-45 -31,-31 -46,-69 -46,-115 0,-46 16,-84 47,-115 32,-31 70,-46 114,-46 45,0 84,14 117,44l-36 52c-14,-12 -27,-21 -39,-25 -11,-5 -24,-7 -38,-7 -26,0 -48,9 -66,27 -19,18 -28,41 -28,70 0,30 9,53 26,71 18,18 38,26 62,26 24,0 44,-4 60,-13l0 -86 0 0zm332 124c-27,25 -58,38 -94,38 -37,0 -67,-11 -90,-34 -24,-22 -36,-52 -36,-90 0,-37 12,-67 36,-89 24,-23 53,-34 86,-34 33,0 61,10 84,30 23,20 34,47 34,82l0 35 -174 0c2,14 9,24 20,32 12,9 25,13 39,13 24,0 43,-8 58,-24l37 41 0 0zm-48 -109c-1,-14 -6,-25 -16,-33 -9,-8 -20,-12 -33,-12 -13,0 -25,4 -36,12 -11,8 -18,19 -19,33l104 0 0 0zm183 10l0 133 -67 0 0 -239 67 0 0 27c20,-20 42,-31 68,-31 25,0 46,9 63,27 17,18 26,42 26,71l0 145 -67 0 0 -135c0,-36 -14,-55 -41,-55 -13,0 -25,5 -34,15 -10,9 -15,23 -15,42l0 0zm371 23l0 -129 67 0 0 239 -67 0 0 -31c-16,23 -38,35 -64,35 -26,0 -48,-8 -66,-25 -18,-16 -27,-40 -27,-73l0 -145 67 0 0 131c0,36 14,55 41,55 13,0 25,-5 35,-15 9,-9 14,-23 14,-42l0 0zm310 36c0,24 -8,42 -26,57 -17,14 -39,21 -66,21 -17,0 -36,-3 -55,-10 -19,-6 -37,-15 -52,-28l29 -42c25,20 52,29 80,29 8,0 15,-1 20,-5 5,-3 8,-8 8,-13 0,-6 -4,-11 -11,-16 -7,-5 -17,-9 -30,-13 -13,-4 -23,-8 -30,-11 -7,-3 -15,-7 -24,-13 -18,-11 -27,-28 -27,-50 0,-22 9,-40 27,-54 17,-14 40,-21 69,-21 28,0 56,10 84,29l-25 44c-21,-14 -41,-21 -62,-21 -20,0 -31,6 -31,17 0,6 3,11 10,14 7,4 17,8 32,13 16,5 26,8 33,11 6,2 14,6 23,12 16,10 24,26 24,50l0 0zm379 405l479 829 -3083 0 479 -829 2125 0zm521 902l475 822 -4117 0 475 -822 3167 0 0 0zm525 909l475 823 -5167 0 475 -823 4217 0zm517 895l479 830 -6208 0 479 -830 5250 0 0 0zm520 902l480 830 -7250 0 479 -830 6291 0zm521 902l500 866 -4166 0 -4167 0 500 -866 7333 0z"/>
 </g>
</svg>
