<?xml version="1.0" encoding="UTF-8"?>
<!DOCTYPE svg PUBLIC "-//W3C//DTD SVG 1.1//EN" "http://www.w3.org/Graphics/SVG/1.1/DTD/svg11.dtd">
<!-- Creator: CorelDRAW X8 -->
<svg xmlns="http://www.w3.org/2000/svg" xml:space="preserve" width="6.66666in" height="6.66666in" version="1.1" style="shape-rendering:geometricPrecision; text-rendering:geometricPrecision; image-rendering:optimizeQuality; fill-rule:evenodd; clip-rule:evenodd"
viewBox="0 0 6667 6667"
 xmlns:xlink="http://www.w3.org/1999/xlink"
 xmlns:rdf="http://www.w3.org/1999/02/22-rdf-syntax-ns#"
 xmlns:cc="http://creativecommons.org/ns#"
 xmlns:dc="http://purl.org/dc/elements/1.1/">
 <defs>
  <style type="text/css">
   <![CDATA[
    .fil0 {fill:white}
   ]]>
  </style>
 </defs>
 <g id="Layer_x0020_1">
  <metadata id="CorelCorpID_0Corel-Layer"/>
  <g>
   <path class="fil0" d="M2182 5904c2366,0 3660,-1960 3660,-3659 0,-56 -1,-111 -4,-166 252,-182 470,-409 642,-666 -230,102 -478,171 -739,202 266,-159 470,-411 566,-711 -249,147 -524,254 -817,312 -234,-250 -569,-407 -939,-407 -710,0 -1286,576 -1286,1286 0,101 11,200 33,294 -1069,-54 -2016,-566 -2651,-1344 -110,190 -174,411 -174,646 0,447 227,841 572,1071 -211,-7 -409,-64 -582,-161 0,6 0,11 0,17 0,622 443,1143 1032,1260 -109,30 -222,46 -340,46 -82,0 -163,-8 -241,-24 163,512 638,883 1201,894 -440,345 -995,550 -1597,550 -104,0 -206,-6 -307,-17 569,364 1245,577 1972,577l-1 0zm0 0l0 0 0 0z"/>
  </g>
 </g>
</svg>
