<?xml version="1.0" encoding="UTF-8"?>
<!DOCTYPE svg PUBLIC "-//W3C//DTD SVG 1.1//EN" "http://www.w3.org/Graphics/SVG/1.1/DTD/svg11.dtd">
<!-- Creator: CorelDRAW X8 -->
<svg xmlns="http://www.w3.org/2000/svg" xml:space="preserve" width="6.66666in" height="6.66666in" version="1.1" style="shape-rendering:geometricPrecision; text-rendering:geometricPrecision; image-rendering:optimizeQuality; fill-rule:evenodd; clip-rule:evenodd"
viewBox="0 0 6667 6667"
 xmlns:xlink="http://www.w3.org/1999/xlink"
 xmlns:dc="http://purl.org/dc/elements/1.1/"
 xmlns:cc="http://creativecommons.org/ns#"
 xmlns:rdf="http://www.w3.org/1999/02/22-rdf-syntax-ns#"
 xmlns:svg="http://www.w3.org/2000/svg"
 enable-background="new 0 0 405.661 316.98">
 <defs>
  <style type="text/css">
   <![CDATA[
    .fil0 {fill:white}
   ]]>
  </style>
 </defs>
 <g id="Layer_x0020_1">
  <metadata id="CorelCorpID_0Corel-Layer"/>
  <g id="_1753881670880">
   <path class="fil0" d="M447 6253c157,-508 340,-992 506,-1491 -1106,-1934 263,-4112 2117,-4293 1750,-170 3186,1087 3190,2803 5,1810 -1751,3330 -3727,2713 -148,-47 -333,-199 -506,-209 -243,-14 -560,160 -805,238 -269,87 -502,173 -775,239zm1639 -1014c1595,968 3505,-117 3667,-1699 147,-1432 -996,-2706 -2534,-2594 -1755,128 -2809,2223 -1729,3757 -96,262 -185,530 -268,805 293,-85 563,-193 864,-269z"/>
   <path class="fil0" d="M2712 1930c168,351 428,870 0,1103 217,459 576,776 1044,984 155,-103 257,-259 387,-388 272,107 526,230 746,388 22,513 -410,703 -775,686 -772,-36 -1832,-1010 -2087,-1729 -152,-427 22,-1244 685,-1044z"/>
  </g>
 </g>
</svg>
